<?xml version="1.0" encoding="utf-8"?>
<!-- Generator: Adobe Illustrator 26.0.1, SVG Export Plug-In . SVG Version: 6.00 Build 0)  -->
<svg version="1.1" id="Layer_1" xmlns="http://www.w3.org/2000/svg" xmlns:xlink="http://www.w3.org/1999/xlink" x="0px" y="0px"
	 viewBox="0 0 143.3 160.1" style="enable-background:new 0 0 143.3 160.1;" xml:space="preserve">
<style type="text/css">
	.st0{fill:#FFFFFF;}
	.st1{fill:#97C0E8;}
</style>
<g>
	<g id="XMLID_00000048458784028222604960000004470218248066544783_">
		<g>
			<path class="st0" d="M143.3,160.1h-33.9l-64.6-45.6c-5.3-4-11-8.3-16.6-13h-0.9v58.5H0V85h27.3l88.5,57.3l7.1,4.6l19.9,12.9
				l0.1,0L143.3,160.1z"/>
			<polygon class="st0" points="143.3,12 143.3,160 142.9,159.8 122.9,146.9 115.8,142.3 116,30 			"/>
			<path class="st0" d="M143.3,0l-116,75.1L0,75V0h27.3v58.5h0.9c5.6-4.7,11.3-9,16.6-13L109.4,0H143.3z"/>
			<polygon class="st1" points="122.9,146.9 142.9,159.8 142.8,159.8 			"/>
			<polygon class="st0" points="102.8,40.9 102.6,119.3 40.9,79.4 			"/>
		</g>
		<g>
		</g>
	</g>
</g>
</svg>
